<svg xmlns="http://www.w3.org/2000/svg" viewBox="0 0 40 40">
  <defs>
    <linearGradient id="g" x1="0" y1="0" x2="1" y2="1">
      <stop offset="0%" stop-color="#E60023"/>
      <stop offset="100%" stop-color="#FF4D4D"/>
    </linearGradient>
  </defs>
  <rect width="40" height="40" rx="8" fill="url(#g)"/>
  <g transform="translate(8,8)" fill="none" stroke="white" stroke-width="2" stroke-linecap="round" stroke-linejoin="round">
    <path d="M2 9a3 3 0 0 1 0 6v2a2 2 0 0 0 2 2h16a2 2 0 0 0 2-2v-2a3 3 0 0 1 0-6V7a2 2 0 0 0-2-2H4a2 2 0 0 0-2 2z"/>
    <line x1="13" y1="5" x2="13" y2="7"/>
    <line x1="13" y1="11" x2="13" y2="13"/>
    <line x1="13" y1="17" x2="13" y2="19"/>
  </g>
</svg>
